<mxfile host="app.diagrams.net" agent="Mozilla/5.0 (Macintosh; Intel Mac OS X 10_15_7) AppleWebKit/605.1.15 (KHTML, like Gecko) Version/17.1.2 Safari/605.1.15" version="24.7.12">
  <diagram name="Page-1" id="a5oUDinlxtzg2lyxMqoc">
    <mxGraphModel dx="1434" dy="827" grid="1" gridSize="10" guides="1" tooltips="1" connect="1" arrows="1" fold="1" page="1" pageScale="1" pageWidth="827" pageHeight="1169" math="0" shadow="0">
      <root>
        <mxCell id="0" />
        <mxCell id="1" parent="0" />
        <mxCell id="Cfhr9sOupIrR1O6kekob-1" value="KHTN" style="rounded=0;whiteSpace=wrap;html=1;" vertex="1" parent="1">
          <mxGeometry y="430" width="80" height="30" as="geometry" />
        </mxCell>
        <mxCell id="Cfhr9sOupIrR1O6kekob-4" value="TỔ CHUYÊN MÔN" style="rounded=0;whiteSpace=wrap;html=1;" vertex="1" parent="1">
          <mxGeometry x="90" y="330" width="120" height="30" as="geometry" />
        </mxCell>
        <mxCell id="Cfhr9sOupIrR1O6kekob-5" value="Hội đồng trường" style="rounded=0;whiteSpace=wrap;html=1;" vertex="1" parent="1">
          <mxGeometry x="354" y="150" width="120" height="40" as="geometry" />
        </mxCell>
        <mxCell id="Cfhr9sOupIrR1O6kekob-6" value="Ban Giám hiệu" style="rounded=0;whiteSpace=wrap;html=1;" vertex="1" parent="1">
          <mxGeometry x="354" y="240" width="120" height="40" as="geometry" />
        </mxCell>
        <mxCell id="Cfhr9sOupIrR1O6kekob-8" value="CÁC HỘI ĐỒNG" style="rounded=0;whiteSpace=wrap;html=1;" vertex="1" parent="1">
          <mxGeometry x="354" y="330" width="120" height="30" as="geometry" />
        </mxCell>
        <mxCell id="Cfhr9sOupIrR1O6kekob-9" value="KHXH" style="rounded=0;whiteSpace=wrap;html=1;" vertex="1" parent="1">
          <mxGeometry x="90" y="430" width="80" height="30" as="geometry" />
        </mxCell>
        <mxCell id="Cfhr9sOupIrR1O6kekob-10" value="NTTT" style="rounded=0;whiteSpace=wrap;html=1;" vertex="1" parent="1">
          <mxGeometry x="180" y="430" width="80" height="30" as="geometry" />
        </mxCell>
        <mxCell id="Cfhr9sOupIrR1O6kekob-11" value="Văn phòng" style="rounded=0;whiteSpace=wrap;html=1;" vertex="1" parent="1">
          <mxGeometry x="274" y="430" width="80" height="30" as="geometry" />
        </mxCell>
        <mxCell id="Cfhr9sOupIrR1O6kekob-12" value="Thi đua khen thưởng" style="rounded=0;whiteSpace=wrap;html=1;" vertex="1" parent="1">
          <mxGeometry x="380" y="430" width="110" height="30" as="geometry" />
        </mxCell>
        <mxCell id="Cfhr9sOupIrR1O6kekob-13" value="Kỉ luật" style="rounded=0;whiteSpace=wrap;html=1;" vertex="1" parent="1">
          <mxGeometry x="500" y="430" width="80" height="30" as="geometry" />
        </mxCell>
        <mxCell id="Cfhr9sOupIrR1O6kekob-14" value="CÁC BAN" style="rounded=0;whiteSpace=wrap;html=1;" vertex="1" parent="1">
          <mxGeometry x="610" y="330" width="120" height="30" as="geometry" />
        </mxCell>
        <mxCell id="Cfhr9sOupIrR1O6kekob-15" value="Chuyển đổi số" style="rounded=0;whiteSpace=wrap;html=1;" vertex="1" parent="1">
          <mxGeometry x="600" y="430" width="80" height="30" as="geometry" />
        </mxCell>
        <mxCell id="Cfhr9sOupIrR1O6kekob-16" value="Bình đẳng giới&amp;nbsp;" style="rounded=0;whiteSpace=wrap;html=1;" vertex="1" parent="1">
          <mxGeometry x="690" y="430" width="80" height="30" as="geometry" />
        </mxCell>
      </root>
    </mxGraphModel>
  </diagram>
</mxfile>
